# xmcd
#
# Track frame offsets:
#	150
#	17965
#	31540
#	44665
#	73837
#	101740
#	121240
#	140590
#	169995
#	187242
#	205992
#
# Disc length: 3212
#
# Revision: 1
# Processed by: cddbd v1.5.1PL0 Copyright (c) Steve Scherf et al.
# Submitted via: CDex 1.51
# Normalized: r0:TDELIM( - )
#
DISCID=a70c8a0b
DTITLE=Various Artist - Jazz 101 - Introduction to Big Band Swing
DYEAR=2000
DGENRE=Jazz
TTITLE0=Gene Harris All Star Band - Captain Bill
TTITLE1=Keely Smith - Swing, Swing, Swing
TTITLE2=Rob McCowell and The Boss Brass - Flying Home
TTITLE3=Louis Belson and Big Band Explosion! - Who Brings You Good News?
TTITLE4=Ken Peplowski with The Loren Schoenberg Big Band - I've Never Been In Love Before
TTITLE5=Maynard Ferguson and Big Bop Nouveau - It Don't Mean A Thing
TTITLE6=Big Kahuna and The Copa Cat Pack - Don't Be That Way
TTITLE7=Frank Capp Juggernaut - Warm Breeze
TTITLE8=Frank Wess and Harry Edison Orchestra - Whirly Bird
TTITLE9=Bill Berry's L.A. Big Band - Boy Meets Horn
TTITLE10=Woody Herman Big Band - Lemon Drop
EXTD=YEAR: 2000
EXTT0=
EXTT1=
EXTT2=
EXTT3=
EXTT4=
EXTT5=
EXTT6=
EXTT7=
EXTT8=
EXTT9=
EXTT10=
PLAYORDER=
